<?xml version="1.0" standalone="no"?><!DOCTYPE svg PUBLIC "-//W3C//DTD SVG 1.1//EN" "http://www.w3.org/Graphics/SVG/1.1/DTD/svg11.dtd"><svg t="1554276419967" class="icon" style="" viewBox="0 0 1039 1024" version="1.1" xmlns="http://www.w3.org/2000/svg" p-id="3804" xmlns:xlink="http://www.w3.org/1999/xlink" width="202.9296875" height="200"><defs><style type="text/css"></style></defs><path d="M885.817847 59.35176 137.568169 59.35176c-75.855642 0-137.569192 61.71355-137.569192 137.569192l0 628.263957c0 75.857688 61.712527 137.569192 137.569192 137.569192L885.817847 962.754101c75.857688 0 137.569192-61.711504 137.569192-137.569192L1023.38704 196.919928C1023.38704 121.06531 961.675536 59.35176 885.817847 59.35176zM959.89396 196.919928l0 162.398694L663.426805 359.318622 663.426805 122.844839 885.817847 122.844839C926.665161 122.844839 959.89396 156.074661 959.89396 196.919928zM423.453315 122.844839l176.48041 0 0 461.551004-65.792449-65.793472c-12.396331-12.398378-32.499182-12.398378-44.897559 0l-65.790402 65.791425L423.453315 122.844839zM137.568169 122.844839l222.392066 0 0 236.473783L63.49308 359.318622l0-162.398694C63.49308 156.074661 96.722902 122.844839 137.568169 122.844839zM885.817847 899.259998 137.568169 899.259998c-40.84629 0-74.075089-33.228799-74.075089-74.076112L63.49308 422.811702l296.467155 0 0 238.225683c0 12.837376 7.735172 24.415063 19.597337 29.330002 11.862165 4.912893 25.518187 2.197038 34.596959-6.882757l97.538477-97.537454 97.540524 97.537454c6.072299 6.075369 14.190187 9.30083 22.453385 9.30083 4.088108 0 8.213056-0.791016 12.140505-2.418073 11.863189-4.91494 19.597337-16.492626 19.597337-29.330002l0-238.225683 296.467155 0 0 402.372184C959.89396 866.031199 926.665161 899.259998 885.817847 899.259998z" p-id="3805" data-spm-anchor-id="a313x.7781069.0.i7" class="selected" fill="#00dada"></path></svg>