<?xml version="1.0" standalone="no"?><!DOCTYPE svg PUBLIC "-//W3C//DTD SVG 1.1//EN" "http://www.w3.org/Graphics/SVG/1.1/DTD/svg11.dtd"><svg t="1554361820747" class="icon" style="" viewBox="0 0 1024 1024" version="1.1" xmlns="http://www.w3.org/2000/svg" p-id="15386" xmlns:xlink="http://www.w3.org/1999/xlink" width="200" height="200"><defs><style type="text/css"></style></defs><path d="M71.68 313.344c-9.216 62.976 23.552 156.672 69.12 251.904 0 0 56.32-65.536 78.848-126.464 0 0 76.8-177.664 132.096-328.192C231.936 145.408 86.528 208.896 71.68 313.344z" fill="#6ED7FF" p-id="15387"></path><path d="M672.256 110.592c-1.024-3.072-23.04-6.144-26.112-7.168-9.216-2.56-18.432-4.608-27.648-7.168-39.936-9.728-80.896-14.336-122.368-12.8-40.96 1.024-81.92 10.24-121.344 20.992-3.072 1.024-22.016 4.096-23.04 6.144C296.448 261.12 219.648 438.784 219.648 438.784s48.128 427.52 292.352 331.776c244.224 95.232 292.352-331.776 292.352-331.776s-76.8-177.664-132.096-328.192z" fill="#FF52A1" p-id="15388"></path><path d="M676.864 124.416c-1.024-2.56-22.016-6.144-25.6-7.168l-12.288-3.072C691.2 250.88 758.272 420.352 758.272 420.352s-41.472 410.112-277.504 317.952c-54.272 21.504-98.816 15.872-135.168-5.632 42.496 53.248 102.4 83.968 185.856 51.2 236.544 92.16 283.136-321.536 283.136-321.536s-83.968-192.512-137.728-337.92z" fill="#EF2E8E" p-id="15389"></path><path d="M580.096 803.84c-21.504 0-44.544-4.096-68.096-12.8-55.296 19.968-105.984 16.384-150.528-10.752-129.536-78.336-159.232-328.704-160.256-339.456l-0.512-5.12 2.048-4.608c0.512-1.536 77.312-179.2 131.584-327.168 4.096-11.776 15.36-14.336 32.768-17.408 1.536-0.512 2.56-0.512 3.072-0.512 36.864-9.728 80.384-19.968 125.44-21.504 41.984-1.024 84.992 3.584 126.976 13.312 9.216 2.048 18.944 4.608 28.16 7.168 0.512 0 2.048 0.512 3.584 0.512 18.944 3.584 31.232 6.144 35.84 18.432 54.272 148.48 131.072 325.632 131.584 327.168l2.048 4.608-0.512 5.12c-1.024 10.752-30.72 261.12-160.256 339.456-26.112 15.872-53.76 23.552-82.944 23.552zM512 750.592l6.656 2.56c47.104 18.432 87.552 16.896 123.904-5.12 104.448-62.976 137.216-271.872 141.824-306.176-12.288-28.672-77.824-182.784-127.488-316.416-3.584-1.024-8.192-1.536-10.24-2.048-2.56-0.512-5.12-1.024-6.144-1.024-9.216-2.56-17.92-4.608-27.136-6.656-38.912-9.216-78.336-13.312-117.248-12.288-40.96 1.024-82.432 10.752-116.736 19.968-1.024 0-3.072 0.512-5.632 1.024-1.536 0.512-4.608 1.024-7.68 1.536C316.416 259.584 250.88 413.184 238.592 442.368c4.608 34.816 37.376 243.2 141.824 306.176 36.352 22.016 76.8 23.552 123.904 5.12l7.68-3.072z" fill="#6147B2" p-id="15390"></path><path d="M952.32 313.344c9.216 62.976-23.552 156.672-69.12 251.904 0 0-56.32-65.536-78.848-126.464 0 0-76.8-177.664-132.096-328.192 119.808 34.816 265.216 98.304 280.064 202.752z" fill="#6ED7FF" p-id="15391"></path><path d="M287.232 131.584c-47.616 121.856-96.256 234.496-96.256 234.496-22.528 60.928-78.848 126.464-78.848 126.464-5.632-11.776-11.264-23.552-16.384-35.328 12.288 34.816 27.648 71.168 45.568 107.52 0 0 56.32-65.536 78.848-126.464 0 0 76.8-177.664 132.096-328.192-21.504 6.656-43.52 13.824-65.024 21.504zM952.32 313.344c-4.608-31.232-20.48-58.88-44.544-82.944 2.048 6.144 3.584 12.8 4.608 19.456 9.216 62.976-23.552 156.672-69.12 251.904 0 0-11.264-12.8-25.088-32.256 26.112 50.688 65.024 95.744 65.024 95.744 46.08-95.232 78.336-188.928 69.12-251.904z" fill="#4CC8E5" p-id="15392"></path><path d="M136.192 599.552l-12.288-26.112C68.096 458.24 44.544 369.664 52.736 310.784c16.384-114.176 168.96-181.76 293.888-218.112l35.84-10.24-12.8 35.328c-53.248 145.408-128 318.464-132.096 328.704-23.552 63.488-79.872 129.024-82.432 132.096l-18.944 20.992z m-45.568-283.648c-6.656 46.592 12.288 119.808 54.784 213.504 17.92-23.552 44.032-61.44 56.832-97.28l0.512-1.024c0.512-1.536 65.536-151.552 118.272-291.328-93.696 31.744-218.112 89.088-230.4 176.128zM887.808 599.552l-18.944-22.016c-2.56-2.56-58.88-68.096-82.432-132.096-4.608-10.24-78.848-183.296-132.096-328.704l-12.8-35.328 35.84 10.24c124.928 36.352 277.504 103.936 293.888 218.112 8.704 59.392-15.36 147.456-70.656 263.168l-12.8 26.624z m-184.32-459.264c52.736 139.264 117.248 289.28 118.272 291.328l0.512 1.024c13.312 35.84 39.424 73.728 56.832 97.28 42.496-93.696 61.44-167.424 54.784-213.504-12.8-87.552-137.216-144.896-230.4-176.128z" fill="#6147B2" p-id="15393"></path><path d="M512 771.072V727.04" fill="#FFB87D" p-id="15394"></path><path d="M512 790.016c-10.24 0-18.944-8.704-18.944-18.944V727.04c0-10.24 8.704-18.944 18.944-18.944s18.944 8.704 18.944 18.944v43.52c0 10.752-8.704 19.456-18.944 19.456z" fill="#6147B2" p-id="15395"></path><path d="M590.336 657.408c1.024-12.8-9.216-23.552-21.504-23.552H455.68c-12.8 0-23.04 10.752-21.504 23.552 2.048 24.064 14.336 45.568 35.328 58.368 49.152 30.208 115.2 0.512 120.832-58.368z" fill="#FFB87D" p-id="15396"></path><path d="M511.488 747.008c-17.92 0-36.352-5.12-52.224-14.848-25.088-15.36-41.472-41.984-44.032-73.216-1.024-11.264 2.56-22.528 10.24-30.72 7.68-8.192 18.432-13.312 30.208-13.312h112.64c11.264 0 22.528 4.608 30.208 13.312 7.68 8.192 11.264 19.456 10.24 30.72-3.072 33.28-22.528 62.464-52.224 77.312-14.336 7.168-29.696 10.752-45.056 10.752zM455.68 652.8c-1.024 0-2.048 0.512-2.048 1.024-0.512 0.512-0.512 1.024-0.512 2.048 1.536 19.456 11.264 34.816 26.112 44.032 18.432 11.264 41.472 12.288 60.416 2.56 18.432-9.216 29.696-26.112 31.744-46.592 0-0.512 0-1.536-0.512-2.048-0.512-0.512-1.024-1.024-2.048-1.024H455.68z" fill="#6147B2" p-id="15397"></path><path d="M402.432 468.992h-29.696c-19.968 0-35.84-16.384-35.84-35.84v-29.696c0-19.968 16.384-35.84 35.84-35.84h29.696c19.968 0 35.84 16.384 35.84 35.84v29.696c0.512 19.456-15.872 35.84-35.84 35.84z" fill="#FFB87D" p-id="15398"></path><path d="M387.584 487.936c-38.4 0-70.144-31.232-70.144-70.144 0-38.4 31.232-70.144 70.144-70.144 38.4 0 70.144 31.232 70.144 70.144s-31.232 70.144-70.144 70.144z m0-101.888c-17.408 0-32.256 14.336-32.256 32.256s14.336 32.256 32.256 32.256c17.408 0 32.256-14.336 32.256-32.256s-14.336-32.256-32.256-32.256z" fill="#6147B2" p-id="15399"></path><path d="M674.304 468.992h-29.696c-19.968 0-35.84-16.384-35.84-35.84v-29.696c0-19.968 16.384-35.84 35.84-35.84h29.696c19.968 0 35.84 16.384 35.84 35.84v29.696c0 19.456-15.872 35.84-35.84 35.84z" fill="#FFB87D" p-id="15400"></path><path d="M659.456 487.936c-38.4 0-70.144-31.232-70.144-70.144 0-38.4 31.232-70.144 70.144-70.144 38.4 0 70.144 31.232 70.144 70.144-0.512 38.912-31.744 70.144-70.144 70.144z m0-101.888c-17.408 0-32.256 14.336-32.256 32.256s14.336 32.256 32.256 32.256c17.408 0 32.256-14.336 32.256-32.256s-14.848-32.256-32.256-32.256z" fill="#6147B2" p-id="15401"></path><path d="M516.608 827.392s-66.56-7.168-66.56 25.6c5.12 60.416 66.56 86.016 66.56 86.016s60.928-25.6 66.56-86.016c0-32.768-66.56-25.6-66.56-25.6z" fill="#FF52A1" p-id="15402"></path><path d="M516.608 959.488l-7.168-3.072c-3.072-1.024-71.68-30.72-78.336-101.888v-1.536c0-11.264 4.608-21.504 13.312-29.184 20.48-18.432 60.416-16.384 72.192-15.36 11.776-1.024 51.712-3.072 72.192 15.36 8.704 7.68 13.312 17.92 13.312 29.184v1.536c-6.144 71.168-75.264 100.864-78.336 101.888l-7.168 3.072z m-47.616-107.008c3.584 35.84 33.28 57.344 47.616 65.536 13.824-8.192 43.52-29.184 47.616-65.024-3.072-5.12-25.6-8.704-45.568-6.656h-4.096c-20.992-2.56-43.008 1.536-45.568 6.144z" fill="#6147B2" p-id="15403"></path></svg>