<?xml version="1.0" standalone="no"?><!DOCTYPE svg PUBLIC "-//W3C//DTD SVG 1.1//EN" "http://www.w3.org/Graphics/SVG/1.1/DTD/svg11.dtd"><svg t="1554361673940" class="icon" style="" viewBox="0 0 1024 1024" version="1.1" xmlns="http://www.w3.org/2000/svg" p-id="8113" xmlns:xlink="http://www.w3.org/1999/xlink" width="200" height="200"><defs><style type="text/css"></style></defs><path d="M511.58 429.462l45.707-256.194-36.668-50.596 17.993-36.091h-54.055l18.031 36.091-36.725 50.596z" fill="#FFCE54" p-id="8114"></path><path d="M778.695 873.841l71.673-8.801a5.654 5.654 0 0 0 4.962-5.929c-3.347-59.468-34.578-602.676-64-697.497-9.431-30.395-148.459-66.407-168.923-71.556a5.647 5.647 0 0 1-3.674-2.955l-10.04-20.073c-2.351-4.7-9.28-3.939-10.554 1.16l-14.272 57.134a5.608 5.608 0 0 0-0.085 0.401l-66.614 382.811c-1.088 6.254-10.066 6.253-11.153-0.001l-66.57-382.836a5.605 5.605 0 0 0-0.086-0.405l-14.311-57.139c-1.277-5.097-8.206-5.855-10.554-1.155l-10.038 20.092a5.648 5.648 0 0 1-3.641 2.949c-20.418 5.274-159.97 42.304-168.955 71.535-33.482 108.922-61.021 639.024-63.976 697.565a5.653 5.653 0 0 0 4.964 5.896l71.683 8.804a5.66 5.66 0 0 0 6.274-4.694L311.5 502.178c0.995-6.013 9.485-6.423 11.054-0.534l17.199 64.556c0.241 0.905 0.254 1.856 0.037 2.767l-70.782 297.627a5.66 5.66 0 0 0 3.25 6.501l196.792 85.553c3.302 1.435 7.087-0.536 7.804-4.064l29.15-143.437c1.228-6.044 9.866-6.044 11.094 0.001l29.134 143.436c0.717 3.528 4.502 5.5 7.803 4.064l196.828-85.554a5.66 5.66 0 0 0 3.25-6.501l-70.819-297.625a5.667 5.667 0 0 1 0.037-2.769l17.221-64.587c1.57-5.887 10.057-5.478 11.053 0.533l60.815 367.003a5.661 5.661 0 0 0 6.275 4.693z" fill="#3A5CAC" p-id="8115"></path><path d="M701.847 311.593l-73.346 10.167 48.503-59.806 24.843 19.196z" fill="#F3797D" p-id="8116"></path></svg>