<?xml version="1.0" standalone="no"?><!DOCTYPE svg PUBLIC "-//W3C//DTD SVG 1.1//EN" "http://www.w3.org/Graphics/SVG/1.1/DTD/svg11.dtd"><svg t="1554361687429" class="icon" style="" viewBox="0 0 1024 1024" version="1.1" xmlns="http://www.w3.org/2000/svg" p-id="8933" xmlns:xlink="http://www.w3.org/1999/xlink" width="200" height="200"><defs><style type="text/css"></style></defs><path d="M419.84 70.144h201.216c5.12 0 8.192 5.12 6.144 9.728l-91.136 192-67.072-35.328-55.808-157.184c-1.536-4.608 1.536-9.216 6.656-9.216z" fill="#6ED7FF" p-id="8934"></path><path d="M544.768 297.984l-91.136-47.616-58.368-164.864c-2.56-7.68-1.536-16.896 3.072-23.552 4.608-6.656 12.8-10.752 20.992-10.752h201.216c8.704 0 16.896 4.608 22.016 11.776 4.608 7.68 5.12 16.896 1.536 24.576l-99.328 210.432zM484.864 223.744l43.008 22.528 74.24-157.184H436.736l48.128 134.656z" fill="#6147B2" p-id="8935"></path><path d="M312.32 172.032l-160.256 453.12c-0.512 2.048 0.512 4.608 2.56 5.12 20.992 7.168 121.344 39.936 121.344 37.376 0-3.072 127.488-448 127.488-448L312.32 172.032z" fill="#FF52A1" p-id="8936"></path><path d="M276.992 686.592c-11.776 0-38.912-8.704-128.512-38.4-11.776-4.096-18.432-16.384-14.848-28.672l0.512-1.024L302.08 144.896 425.984 209.92l-4.096 14.848C373.76 392.704 301.568 645.12 294.912 669.696v7.68l-7.68 5.632c-3.584 2.048-5.632 3.584-10.24 3.584z m-102.4-69.632c37.888 12.8 69.632 22.528 87.552 27.648 10.24-36.864 38.4-136.704 118.784-415.744l-57.856-30.208-148.48 418.304z" fill="#6147B2" p-id="8937"></path><path d="M372.736 260.608s-37.376-36.352-77.312-47.104l22.528-31.232 54.784 78.336z" fill="#F241A2" p-id="8938"></path><path d="M276.992 686.592c-11.776 0-38.912-8.704-128.512-38.4-11.776-4.096-18.432-16.384-14.848-28.672l0.512-1.024L302.08 144.896 425.984 209.92l-4.096 14.848C373.76 392.704 301.568 645.12 294.912 669.696v7.68l-7.68 5.632c-3.584 2.048-5.632 3.584-10.24 3.584z m-102.4-69.632c37.888 12.8 69.632 22.528 87.552 27.648 10.24-36.864 38.4-136.704 118.784-415.744l-57.856-30.208-148.48 418.304z" fill="#6147B2" p-id="8939"></path><path d="M716.288 172.032l156.16 459.776c0.512 2.048-0.512 3.584-2.048 4.608-19.456 6.656-121.856 40.448-121.856 37.376 0-3.072-122.88-454.656-122.88-454.656l90.624-47.104z" fill="#FF52A1" p-id="8940"></path><path d="M747.008 692.736c-5.12 0-7.168-1.536-10.24-3.584l-7.68-5.632V675.84c-6.144-24.064-75.776-280.576-122.368-451.584l-4.096-14.848L727.04 145.408l163.328 480.768c3.584 12.288-2.56 24.576-14.336 28.672-90.112 29.696-117.248 37.888-129.024 37.888z m-99.328-463.36c77.312 283.648 104.448 385.024 114.176 421.888 17.92-5.12 49.664-15.36 87.552-27.648l-143.872-424.448-57.856 30.208z" fill="#6147B2" p-id="8941"></path><path d="M656.384 250.88s61.44-38.912 77.312-37.376-15.872-32.256-15.872-32.256l-35.84 15.872-25.6 53.76z" fill="#F241A2" p-id="8942"></path><path d="M747.008 692.736c-5.12 0-7.168-1.536-10.24-3.584l-7.68-5.632V675.84c-6.144-24.064-75.776-280.576-122.368-451.584l-4.096-14.848L727.04 145.408l163.328 480.768c3.584 12.288-2.56 24.576-14.336 28.672-90.112 29.696-117.248 37.888-129.024 37.888z m-99.328-463.36c77.312 283.648 104.448 385.024 114.176 421.888 17.92-5.12 49.664-15.36 87.552-27.648l-143.872-424.448-57.856 30.208z" fill="#6147B2" p-id="8943"></path><path d="M333.824 196.096c13.824 30.208 47.616 111.104 53.76 195.584 0 3.072 3.072 5.632 6.144 5.632h237.056c3.072 0 5.632-2.048 6.144-5.12 4.096-24.576 22.528-133.12 57.856-205.824 2.56-5.12-2.56-10.24-7.68-8.192l-170.496 66.56c-1.536 0.512-2.56 0.512-4.096 0L341.504 187.904c-5.12-2.048-9.728 3.072-7.68 8.192z" fill="#FF52A1" p-id="8944"></path><path d="M630.784 416.256H393.728c-12.8 0-24.064-10.24-25.088-23.04-6.144-81.408-38.4-159.232-52.224-188.928-4.096-9.216-2.56-19.456 4.096-27.136s16.896-10.24 26.624-7.168L513.536 225.28l166.4-65.024c9.728-3.584 20.48-1.536 27.648 6.144 7.168 7.68 8.704 18.432 4.096 28.16-34.304 71.168-52.736 179.712-56.32 200.704-1.536 12.288-12.288 20.992-24.576 20.992z m-225.28-37.888h214.528c6.144-34.304 20.48-108.544 45.056-171.52l-141.824 55.296c-5.632 2.048-11.264 2.048-16.896 0.512L362.496 215.04c15.36 37.888 36.352 98.816 43.008 163.328z" fill="#6147B2" p-id="8945"></path><path d="M351.744 244.224S482.304 337.92 519.68 399.36l36.352-2.56-14.336-110.08-176.64-90.624-13.312 48.128zM674.816 239.104S610.816 268.288 558.08 337.92c-10.24 13.312-12.288-60.928-12.288-60.928l124.928-87.04 4.096 49.152z" fill="#EF2E8E" p-id="8946"></path><path d="M630.784 416.256H393.728c-12.8 0-24.064-10.24-25.088-23.04-6.144-81.408-38.4-159.232-52.224-188.928-4.096-9.216-2.56-19.456 4.096-27.136s16.896-10.24 26.624-7.168L513.536 225.28l166.4-65.024c9.728-3.584 20.48-1.536 27.648 6.144 7.168 7.68 8.704 18.432 4.096 28.16-34.304 71.168-52.736 179.712-56.32 200.704-1.536 12.288-12.288 20.992-24.576 20.992z m-225.28-37.888h214.528c6.144-34.304 20.48-108.544 45.056-171.52l-141.824 55.296c-5.632 2.048-11.264 2.048-16.896 0.512L362.496 215.04c15.36 37.888 36.352 98.816 43.008 163.328z" fill="#6147B2" p-id="8947"></path><path d="M597.504 472.576H394.752s-101.888 108.032-37.376 470.016c0 0 168.96 18.432 267.264 7.68 26.624-241.664-8.704-411.136-27.136-477.696z" fill="#FF52A1" p-id="8948"></path><path d="M550.912 972.8c-90.624 0-190.464-10.752-196.096-11.264l-14.336-1.536-2.56-13.824c-65.536-367.616 37.888-481.792 41.984-486.4l5.632-6.144h225.28l3.584 13.824c17.408 63.488 55.296 237.568 27.648 485.376l-1.536 15.36-15.36 1.536c-20.992 2.048-47.104 3.072-74.24 3.072zM373.76 925.184c39.936 3.584 154.624 13.312 233.984 7.68 22.016-216.576-7.168-372.736-24.576-441.856h-179.2c-17.408 26.624-79.872 143.872-30.208 434.176z" fill="#6147B2" p-id="8949"></path><path d="M359.424 516.608h258.56l-20.992-39.424-200.192-5.632z" fill="#EF2E8E" p-id="8950"></path><path d="M609.28 472.576h-35.328c18.432 66.56 53.76 236.032 27.136 478.208 19.968-2.048 36.864-5.12 48.64-10.24 0 0 71.68-338.944-40.448-467.968z" fill="#EF2E8E" p-id="8951"></path><path d="M550.912 972.8c-90.624 0-190.464-10.752-196.096-11.264l-14.336-1.536-2.56-13.824c-65.536-367.616 37.888-481.792 41.984-486.4l5.632-6.144h225.28l3.584 13.824c17.408 63.488 55.296 237.568 27.648 485.376l-1.536 15.36-15.36 1.536c-20.992 2.048-47.104 3.072-74.24 3.072zM373.76 925.184c39.936 3.584 154.624 13.312 233.984 7.68 22.016-216.576-7.168-372.736-24.576-441.856h-179.2c-17.408 26.624-79.872 143.872-30.208 434.176z" fill="#6147B2" p-id="8952"></path><path d="M632.832 472.576h-35.328c18.432 66.56 53.76 236.032 27.136 478.208 19.968-2.048 36.864-5.12 48.64-10.24 0 0 71.68-338.944-40.448-467.968z" fill="#FFB87D" p-id="8953"></path><path d="M603.136 971.776l2.56-23.552c26.624-241.152-9.728-409.6-26.624-471.04l-6.656-24.064h68.608l5.632 6.656c116.736 134.656 47.616 470.016 45.056 484.352l-2.048 9.728-9.728 3.584c-13.312 5.12-30.72 8.704-53.76 11.264l-23.04 3.072z m18.944-480.256c17.92 74.752 44.032 228.352 24.064 436.736 4.096-0.512 7.68-1.536 11.264-2.56 4.608-25.6 16.384-94.72 19.456-172.032 4.608-121.344-13.312-211.456-52.224-262.144h-2.56z" fill="#6147B2" p-id="8954"></path><path d="M636.928 73.216L753.152 148.48c2.048 1.536 2.048 4.608 0 5.632-28.672 15.36-178.176 98.304-218.112 167.424l-44.032-52.736s52.224-97.792 136.704-194.048c2.56-2.56 6.144-3.072 9.216-1.536z" fill="#FF52A1" p-id="8955"></path><path d="M538.112 354.816L468.48 271.36l6.144-11.264c2.048-4.096 54.272-100.864 139.264-197.632 8.192-9.728 22.528-11.776 33.28-4.608L763.904 133.12c6.656 4.096 10.24 11.776 10.24 19.456-0.512 7.68-4.608 14.848-11.776 18.432-79.36 42.496-181.76 110.08-210.432 160.256l-13.824 23.552z m-24.064-88.064l19.968 23.552c45.056-55.296 136.704-111.616 186.88-140.288l-85.504-55.296c-62.464 72.704-105.984 144.896-121.344 172.032z" fill="#6147B2" p-id="8956"></path><path d="M405.504 72.704L284.672 142.336c-2.048 1.024-2.048 4.096-0.512 5.12 31.232 24.576 248.32 198.656 272.896 247.296h17.408S520.704 184.32 413.696 73.728c-2.048-2.048-5.632-2.56-8.192-1.024z" fill="#FF52A1" p-id="8957"></path><path d="M599.04 414.208h-53.76l-5.12-10.24c-15.872-32.256-150.016-147.456-267.776-241.152-5.632-4.608-8.704-11.776-8.192-18.944 0.512-7.168 4.608-13.824 11.264-17.408L395.776 56.32c10.24-6.144 23.04-4.096 31.232 4.608 109.568 113.152 163.328 321.024 165.888 329.728l6.144 23.552zM313.856 147.456c56.32 45.056 166.912 135.68 224.768 195.584-22.528-66.56-67.072-177.664-132.608-248.832l-92.16 53.248z" fill="#6147B2" p-id="8958"></path><path d="M409.6 798.72m-14.336 0a14.336 14.336 0 1 0 28.672 0 14.336 14.336 0 1 0-28.672 0Z" fill="#6ED7FF" p-id="8959"></path><path d="M497.152 730.112m-8.192 0a8.192 8.192 0 1 0 16.384 0 8.192 8.192 0 1 0-16.384 0Z" fill="#FFB87D" p-id="8960"></path><path d="M193.536 591.872m-8.192 0a8.192 8.192 0 1 0 16.384 0 8.192 8.192 0 1 0-16.384 0Z" fill="#FFB87D" p-id="8961"></path><path d="M772.096 618.496m-8.192 0a8.192 8.192 0 1 0 16.384 0 8.192 8.192 0 1 0-16.384 0Z" fill="#FFB87D" p-id="8962"></path><path d="M745.472 380.928m-6.656 0a6.656 6.656 0 1 0 13.312 0 6.656 6.656 0 1 0-13.312 0Z" fill="#6ED7FF" p-id="8963"></path><path d="M543.744 655.36m-6.144 0a6.144 6.144 0 1 0 12.288 0 6.144 6.144 0 1 0-12.288 0Z" fill="#6ED7FF" p-id="8964"></path><path d="M319.488 415.232m-6.144 0a6.144 6.144 0 1 0 12.288 0 6.144 6.144 0 1 0-12.288 0Z" fill="#6ED7FF" p-id="8965"></path><path d="M530.432 846.336m-11.776 0a11.776 11.776 0 1 0 23.552 0 11.776 11.776 0 1 0-23.552 0Z" fill="#EF2E8E" p-id="8966"></path><path d="M441.344 641.024m-10.24 0a10.24 10.24 0 1 0 20.48 0 10.24 10.24 0 1 0-20.48 0Z" fill="#EF2E8E" p-id="8967"></path><path d="M608.256 355.328m-4.608 0a4.608 4.608 0 1 0 9.216 0 4.608 4.608 0 1 0-9.216 0Z" fill="#EF2E8E" p-id="8968"></path><path d="M399.36 300.544m-3.584 0a3.584 3.584 0 1 0 7.168 0 3.584 3.584 0 1 0-7.168 0Z" fill="#EF2E8E" p-id="8969"></path><path d="M394.752 398.336h238.08v74.24H394.752z" fill="#FFB87D" p-id="8970"></path><path d="M651.776 491.52H375.808V379.392h275.968V491.52z m-238.08-37.888h200.192v-36.352H413.696v36.352z" fill="#6147B2" p-id="8971"></path></svg>