<?xml version="1.0" standalone="no"?><!DOCTYPE svg PUBLIC "-//W3C//DTD SVG 1.1//EN" "http://www.w3.org/Graphics/SVG/1.1/DTD/svg11.dtd"><svg t="1554361603673" class="icon" style="" viewBox="0 0 1024 1024" version="1.1" xmlns="http://www.w3.org/2000/svg" p-id="6643" xmlns:xlink="http://www.w3.org/1999/xlink" width="200" height="200"><defs><style type="text/css"></style></defs><path d="M791.272727 517.818182a58.484364 58.484364 0 0 0-69.794909 0l-147.037091 110.242909-194.210909-238.754909-2.420363-2.676364a58.112 58.112 0 0 0-80.267637-1.885091L116.363636 584.471273V240.802909A54.690909 54.690909 0 0 1 170.984727 186.181818h682.030546A54.690909 54.690909 0 0 1 907.636364 240.802909V605.090909l-116.363637-87.272727z m116.363637 288.651636A54.690909 54.690909 0 0 1 853.015273 861.090909H170.984727A54.690909 54.690909 0 0 1 116.363636 806.469818v-118.085818l219.834182-242.571636 192.628364 236.846545 2.397091 2.653091c20.363636 20.363636 53.061818 22.714182 76.032 5.422545l149.108363-111.825454L907.636364 692.363636v114.106182zM853.015273 116.363636H170.984727A124.555636 124.555636 0 0 0 46.545455 240.802909v565.666909A124.555636 124.555636 0 0 0 170.984727 930.909091h682.030546A124.555636 124.555636 0 0 0 977.454545 806.469818V240.802909A124.555636 124.555636 0 0 0 853.015273 116.363636zM744.727273 337.454545a46.545455 46.545455 0 1 0 0.023272 93.114182A46.545455 46.545455 0 0 0 744.727273 337.454545" fill="#ffffff" p-id="6644"></path></svg>