<?xml version="1.0" standalone="no"?><!DOCTYPE svg PUBLIC "-//W3C//DTD SVG 1.1//EN" "http://www.w3.org/Graphics/SVG/1.1/DTD/svg11.dtd"><svg t="1554361920090" class="icon" style="" viewBox="0 0 1191 1024" version="1.1" xmlns="http://www.w3.org/2000/svg" p-id="20313" xmlns:xlink="http://www.w3.org/1999/xlink" width="232.6171875" height="200"><defs><style type="text/css"></style></defs><path d="M814.54923365 301.39733366C796.79990065 160.76799966 702.25056765 52.90666666 588.07456765 52.90666666S380.37323365 160.76799966 362.28256765 300.37333366l438.954666 1.024H123.00790065L178.47456765 821.07733366a103.765333 103.765333 0 0 0 104.448 90.624h610.986666a103.594667 103.594667 0 0 0 103.765334-90.624l55.637333-519.68z m-150.357333-83.626667h-133.12a40.96 40.96 0 1 1 0-81.92h133.12a40.96 40.96 0 0 1 0 81.92z" fill="#BBDCFF" p-id="20314"></path><path d="M954.83723365 481.10933366l-6.144 44.373333H227.96790065l-6.144-44.373333zM242.81590065 723.96799966h691.2l5.802667-44.373333H236.84256765z" fill="#FFD300" p-id="20315"></path><path d="M1041.53590065 166.57066666a116.565333 116.565333 0 0 0-86.698667-38.4h-51.2a10.24 10.24 0 0 0-10.24 10.24 10.24 10.24 0 0 0 10.24 10.24h51.2a96.768 96.768 0 0 1 71.509334 31.573333 89.088 89.088 0 0 1 22.528 69.461334l-4.437334 41.472h-221.866666C801.57856765 146.60266666 704.12790065 42.66666666 588.07456765 42.66666666S374.74123365 146.77333366 353.06656765 291.32799966h-221.866667l-3.925333-41.642666a88.576 88.576 0 0 1 22.698666-69.461334 96.256 96.256 0 0 1 71.509334-31.573333h52.736a10.069333 10.069333 0 0 0 10.24-10.24 10.24 10.24 0 0 0-10.24-10.24H221.99456765a116.224 116.224 0 0 0-86.698667 38.4 109.226667 109.226667 0 0 0-27.989333 85.333333l4.266666 39.424 56.661334 530.773334a113.834667 113.834667 0 0 0 114.688 100.522666h610.986666a113.664 113.664 0 0 0 114.517334-100.522666l60.928-570.197334a108.544 108.544 0 0 0-27.818667-85.333333z m-667.306667 123.733333C395.39190065 157.86666666 483.96790065 63.14666666 588.07456765 63.14666666s193.365333 95.232 214.357333 228.010667z m-91.306666 611.84a93.184 93.184 0 0 1-94.208-82.090666L134.44256765 311.80799966h907.946666l-54.272 508.245334a93.525333 93.525333 0 0 1-94.208 82.090666z m377.173333-776.533333h-133.12a51.2 51.2 0 0 0 0 102.4h133.12a51.2 51.2 0 0 0 0-102.4z m0 81.92h-133.12a30.72 30.72 0 0 1 0-61.44h133.12a30.72 30.72 0 1 1 0 61.44z m307.2 263.338667H210.04790065l9.045333 65.365333h738.474667z m-26.794667 44.373333H236.84256765l-3.242667-23.893333H943.06123365z m11.776 153.6H225.23723365l8.533334 64.853333h709.12z m-26.624 44.373333H251.69056765l-3.072-23.381333h679.594666z" fill="#3989FF" p-id="20316"></path></svg>