<?xml version="1.0" standalone="no"?><!DOCTYPE svg PUBLIC "-//W3C//DTD SVG 1.1//EN" "http://www.w3.org/Graphics/SVG/1.1/DTD/svg11.dtd"><svg t="1554361757594" class="icon" style="" viewBox="0 0 1024 1024" version="1.1" xmlns="http://www.w3.org/2000/svg" p-id="11699" xmlns:xlink="http://www.w3.org/1999/xlink" width="200" height="200"><defs><style type="text/css"></style></defs><path d="M915.2 265.4H108.8c-24.6 0-44.8 20.2-44.8 44.8V803c0 24.6 20.2 44.8 44.8 44.8h806.4c24.6 0 44.8-20.2 44.8-44.8V310.2c0-24.7-20.2-44.8-44.8-44.8zM288 411c0 6.3-4.9 11.2-11.2 11.2H142.4c-6.3 0-11.2-4.9-11.2-11.2v-67.2c0-6.3 4.9-11.2 11.2-11.2h134.4c6.3 0 11.2 4.9 11.2 11.2V411z m358.4 347.2c-111.3 0-201.6-90.3-201.6-201.6S535.1 355 646.4 355 848 445.3 848 556.6s-90.3 201.6-201.6 201.6z" fill="#DD4238" p-id="11700"></path><path d="M646.4 724.6c-92.6 0-168-75.4-168-168s75.4-168 168-168 168 75.4 168 168-75.4 168-168 168z m0-268.8c-55.6 0-100.8 45.2-100.8 100.8s45.2 100.8 100.8 100.8 100.8-45.2 100.8-100.8S702 455.8 646.4 455.8zM276.8 231.8H142.4c-6.2 0-11.2-5-11.2-11.2v-44.8c0-6.2 5-11.2 11.2-11.2h134.4c6.2 0 11.2 5 11.2 11.2v44.8c0 6.2-5 11.2-11.2 11.2z" fill="#3E6493" p-id="11701"></path></svg>