<?xml version="1.0" standalone="no"?><!DOCTYPE svg PUBLIC "-//W3C//DTD SVG 1.1//EN" "http://www.w3.org/Graphics/SVG/1.1/DTD/svg11.dtd"><svg t="1554361774640" class="icon" style="" viewBox="0 0 1024 1024" version="1.1" xmlns="http://www.w3.org/2000/svg" p-id="12831" xmlns:xlink="http://www.w3.org/1999/xlink" width="200" height="200"><defs><style type="text/css"></style></defs><path d="M954.828 419.618c-11.787-52.523-247.453-401.107-234.895-157.062-3.837 84.97-171.05 86.823-255.409 15.443-64.143-45.098-54.099 27.969-80.079 73.361-25.98 45.39-148.384 334.093-324.525 389.376-52.15 11.639-50.215 93.786 0.068 116.414 53.636 18.407 241.629-16.226 279.638-33.656 49.688-20.152 421.124-216.455 604.017-381.438-0.986 0.76 14.692-5.732 11.185-22.438z" fill="#0084FF" p-id="12832"></path><path d="M943.642 464.493c-5.396 43.238-479.069 347.918-626.388 392.657-182.553 39.966-209.831 19.857-252.97 22.26-40.893-23.347-65.116-36.851-9.272 25.99 39.415 37.883 132.316 44.91 262.242 19.064C480.433 892.003 902.749 632.083 998.72 563.07c4.922-3.539 20.146-17.721 23.221-20.045 19.795-17.31-62.339-143.158-78.299-78.532z" fill="#4DEDE4" p-id="12833"></path><path d="M239.174 613.432c-13.355 0-24.182 10.827-24.182 24.182 0 13.356 10.827 24.182 24.182 24.182 13.356 0 24.182-10.827 24.182-24.182 0-13.355-10.827-24.182-24.182-24.182z m67.064-92.972c-13.355 0-24.182 10.827-24.182 24.182 0 13.356 10.827 24.182 24.182 24.182 13.356 0 24.182-10.827 24.182-24.182 0.001-13.355-10.826-24.182-24.182-24.182z m58.987-98.461c-13.355 0-24.182 10.827-24.182 24.182 0 13.356 10.827 24.182 24.182 24.182 13.356 0 24.182-10.827 24.182-24.182 0-13.355-10.827-24.182-24.182-24.182z" fill="#FFFFFF" p-id="12834"></path><path d="M333.401 515.41a7.962 7.962 0 0 1-5.763-2.456c-1.766-1.839-3.709-3.583-5.766-5.429-7.506-6.735-16.013-14.369-20.924-30.552-5.257-17.324-5.392-41.213-0.425-75.18 0.045-0.306 0.108-0.61 0.187-0.909 10.248-38.299-6.379-59.692-27.429-86.776-14.772-19.005-31.514-40.546-41.692-71.406a7.983 7.983 0 0 1-0.159-0.548c-14.273-56.564 17.816-95.367 46.128-129.602 16.565-20.03 32.21-38.948 34.817-57.961 0.598-4.371 4.624-7.435 8.998-6.828a7.987 7.987 0 0 1 6.828 8.998c-3.224 23.518-20.277 44.139-38.332 65.971-27.107 32.779-55.135 66.673-43.019 115.24 9.321 28.091 24.43 47.531 39.043 66.332 21.808 28.059 42.412 54.563 30.37 100.25-9.829 67.657 3.443 79.563 16.278 91.081 2.185 1.96 4.443 3.987 6.621 6.256a7.986 7.986 0 0 1-0.231 11.293 7.958 7.958 0 0 1-5.53 2.226z" fill="#0084FF" p-id="12835"></path><path d="M333.873 490.258c-19.574 0.001-52.28-11.757-89.361-25.086-22.751-8.178-46.275-16.635-65.818-21.831-15.893-4.226-29.992-1.572-46.317 1.5-17.439 3.784-28.501 2.784-39.314-0.466-23.498-7.038-41.434-38.359-73.258-64.749a7.988 7.988 0 0 1 10.197-12.297c66.054 54.776 65.555 68.187 99.42 61.813 16.708-3.145 33.985-6.395 53.377-1.239 20.2 5.371 44.051 13.944 67.117 22.236 35.302 12.69 75.315 27.071 88.17 23.744a7.983 7.983 0 0 1 9.734 5.73 7.986 7.986 0 0 1-5.73 9.734c-2.392 0.621-5.144 0.91-8.217 0.911z" fill="#0084FF" p-id="12836"></path></svg>