<?xml version="1.0" standalone="no"?><!DOCTYPE svg PUBLIC "-//W3C//DTD SVG 1.1//EN" "http://www.w3.org/Graphics/SVG/1.1/DTD/svg11.dtd"><svg t="1554361903799" class="icon" style="" viewBox="0 0 1024 1024" version="1.1" xmlns="http://www.w3.org/2000/svg" p-id="19656" xmlns:xlink="http://www.w3.org/1999/xlink" width="200" height="200"><defs><style type="text/css"></style></defs><path d="M575.6 588.8H447.9c-14.7 0-26.6-11.9-26.6-26.6 0-14.7 11.9-26.6 26.6-26.6h127.7c14.7 0 26.6 11.9 26.6 26.6 0 14.6-11.9 26.6-26.6 26.6zM291.7 461.3c-14.7 0-26.6-11.9-26.6-26.6V330.6c0-14.7 11.9-26.6 26.6-26.6s26.6 11.9 26.6 26.6v104.1c0 14.7-11.9 26.6-26.6 26.6zM291.7 261.8c-14.7 0-26.6-11.9-26.6-26.6v-55.5c0-14.7 11.9-26.6 26.6-26.6s26.6 11.9 26.6 26.6v55.5c0 14.7-11.9 26.6-26.6 26.6zM733.2 461.6c-14.7 0-26.6-11.9-26.6-26.6V180c0-14.7 11.9-26.6 26.6-26.6s26.6 11.9 26.6 26.6v255c0 14.7-11.9 26.6-26.6 26.6z" fill="#7A0000" p-id="19657"></path><path d="M128.8 469.6s206.8-18.5 319.3 29.1c0 0 7.4 158.8 62.9 255.3 0 0-295.4 127.1-382.2-0.3s0-284.1 0-284.1z" fill="#FF3838" p-id="19658"></path><path d="M894.2 469.6s-206.8-18.5-319.3 29.1c0 0-7.4 158.8-62.9 255.3 0 0 295.4 127.1 382.2-0.3s0-284.1 0-284.1z" fill="#FF8080" p-id="19659"></path><path d="M90.2 620.3s42.4 145 396 78.9L512 754S73.2 950.3 90.2 620.3zM935.3 620.3s-42.4 145-396 78.9L513.5 754s438.9 196.3 421.8-133.7z" fill="#FFD2D2" opacity=".5" p-id="19660"></path><path d="M266.7 837c-16.2 0-31.4-1.1-45.6-3.2-51.8-7.8-90.2-29.7-114.4-65.2C67.1 710.5 54.4 637.9 70 558.7c11.5-58.5 34.4-100.2 35.4-102 4.3-7.7 12.1-12.8 20.9-13.6 8.7-0.8 214.8-18.6 332 31.1 9.4 4 15.7 13 16.2 23.3 0.1 1.5 7.9 153.6 59.4 243.2 3.8 6.6 4.6 14.5 2.2 21.7-2.4 7.2-7.8 13-14.7 16-3.1 1.3-77.6 33.1-164.2 49.3-32.7 6.2-63 9.3-90.5 9.3zM146 495.1c-6.8 15-17.6 42.3-23.9 75.4-12.5 65.2-2.9 121.8 28.7 168.2 36.7 54 127.3 49.8 196.7 36.8 51.1-9.6 98.3-25.2 126.4-35.6-36.4-80.1-48-182-51.3-222.4-89.8-31-230.9-25.3-276.6-22.4z" fill="#7A0000" p-id="19661"></path><path d="M756.3 837c-27.5 0-57.8-3.1-90.6-9.2-86.6-16.2-161.1-48-164.2-49.3-7-3-12.3-8.8-14.7-16s-1.6-15.1 2.2-21.7c51.6-89.7 59.4-241.7 59.4-243.3 0.5-10.2 6.8-19.3 16.2-23.2 117.2-49.7 323.3-31.9 332-31.1 8.8 0.8 16.6 5.9 20.9 13.6 1 1.7 23.9 43.5 35.4 102 15.6 79.2 2.9 151.8-36.7 209.9-24.1 35.5-62.6 57.4-114.4 65.2-14.1 2.1-29.3 3.1-45.5 3.1zM549 739.9c28.3 10.4 76 26.2 127.2 35.7 69.2 12.8 159.3 16.9 195.9-36.9 63.4-93.1 21.6-206.4 4.8-243.6-45.7-2.9-186.8-8.5-276.7 22.4C597 558 585.4 659.8 549 739.9z" fill="#7A0000" p-id="19662"></path><path d="M828.1 582.7m-41.6 0a41.6 41.6 0 1 0 83.2 0 41.6 41.6 0 1 0-83.2 0Z" fill="#FFD2D2" opacity=".5" p-id="19663"></path><path d="M852.2 686m-24.1 0a24.1 24.1 0 1 0 48.2 0 24.1 24.1 0 1 0-48.2 0Z" fill="#FFFFFF" p-id="19664"></path></svg>