<?xml version="1.0" standalone="no"?><!DOCTYPE svg PUBLIC "-//W3C//DTD SVG 1.1//EN" "http://www.w3.org/Graphics/SVG/1.1/DTD/svg11.dtd"><svg t="1554361889529" class="icon" style="" viewBox="0 0 1024 1024" version="1.1" xmlns="http://www.w3.org/2000/svg" p-id="18600" xmlns:xlink="http://www.w3.org/1999/xlink" width="200" height="200"><defs><style type="text/css"></style></defs><path d="M511.59 133.43a342 342 0 0 1 342 342v498.7a32.25 32.25 0 0 1-32.25 32.25H201.86a32.25 32.25 0 0 1-32.25-32.25V475.41a342 342 0 0 1 342-342z" fill="#F78E61" p-id="18601"></path><path d="M773.33 955.38H167.4l-3.8-482.31C161.89 256.68 363 95.79 573.82 144.76c73 17 131.86 36.92 150.83 59.34a340.25 340.25 0 0 1 80.94 220.31v498.73a32.34 32.34 0 0 1-32.26 32.24z" fill="#FFBD7B" p-id="18602"></path><path d="M94.61 572.9h60a12 12 0 0 1 12 12v304.49a12 12 0 0 1-12 12h-60a28.5 28.5 0 0 1-28.5-28.5V601.4a28.5 28.5 0 0 1 28.5-28.5zM934.57 901.39h-60a12 12 0 0 1-12-12V584.9a12 12 0 0 1 12-12h60a28.5 28.5 0 0 1 28.5 28.5v271.49a28.5 28.5 0 0 1-28.5 28.5z" fill="#F78E61" p-id="18603"></path><path d="M513.09 514.41m-205.49 0a205.49 205.49 0 1 0 410.98 0 205.49 205.49 0 1 0-410.98 0Z" fill="#A9E7FF" p-id="18604"></path><path d="M690.08 458.91c0 113.49-92 205.49-205.49 205.49a205.43 205.43 0 0 1-179.53-105.46c-16.53-29.6-7.66-184.64 147.34-242.64 84.24-31.52 195 13 217.74 54.16 14.34 25.99 19.94 56.79 19.94 88.45z" fill="#D7F7FF" p-id="18605"></path><path d="M512 289.57C388 289.57 287.56 390 287.56 514S388 738.44 512 738.44 736.44 638 736.44 514 636 289.57 512 289.57z m137.45 361.88A194.38 194.38 0 1 1 706.38 514a193.11 193.11 0 0 1-56.93 137.45zM249.49 876.71a15 15 0 0 0-15 15v39.08a15 15 0 0 0 30.06 0v-39.05a15 15 0 0 0-15.06-15.03zM319.62 876.71a15 15 0 0 0-15 15v39.08a15 15 0 0 0 30.06 0v-39.05a15 15 0 0 0-15.06-15.03zM399.78 876.71a15 15 0 0 0-15 15v39.08a15 15 0 0 0 30.06 0v-39.05a15 15 0 0 0-15.06-15.03z" fill="#192B3A" p-id="18606"></path><path d="M920.8 561.1h-48.1v-78.16c0-165.47-112.93-305.85-265.52-347.87V95.19a95.19 95.19 0 0 0-190.37 0v39.88c-152.59 42-265.52 182.4-265.52 347.87v78.16H103.2a55.17 55.17 0 0 0-55.11 55.1v248.49a55.17 55.17 0 0 0 55.11 55.11h48.1v44.09a60.29 60.29 0 0 0 60.11 60.11h601.18a60.29 60.29 0 0 0 60.12-60.12V919.8h48.09a55.17 55.17 0 0 0 55.11-55.11V616.2a55.17 55.17 0 0 0-55.11-55.1zM103.2 889.74a25.08 25.08 0 0 1-25-25V616.2a25.08 25.08 0 0 1 25-25h48.1v298.54zM446.87 95.19a65.13 65.13 0 0 1 130.25 0v33a359.11 359.11 0 0 0-65.12-5.95 359.13 359.13 0 0 0-65.13 5.94z m395.77 868.7a30.24 30.24 0 0 1-30.06 30.06H211.41a30.24 30.24 0 0 1-30.06-30.06V482.94a326.33 326.33 0 0 1 26.07-128.3A334.16 334.16 0 0 1 383.7 178.37a328.76 328.76 0 0 1 256.6 0 334.16 334.16 0 0 1 176.28 176.27 326.33 326.33 0 0 1 26.07 128.3z m103.2-99.19a25.08 25.08 0 0 1-25 25H872.7V591.15h48.1a25.08 25.08 0 0 1 25 25z" fill="#192B3A" p-id="18607"></path><path d="M371.729732 473.289668a20.25 38.25 30 1 0 38.25-66.250944 20.25 38.25 30 1 0-38.25 66.250944Z" fill="#FFFFFF" p-id="18608"></path><path d="M425.485049 392.512452a12.12 17.43 51.71 1 0 27.361075-21.600722 12.12 17.43 51.71 1 0-27.361075 21.600722Z" fill="#FFFFFF" p-id="18609"></path></svg>