<?xml version="1.0" standalone="no"?><!DOCTYPE svg PUBLIC "-//W3C//DTD SVG 1.1//EN" "http://www.w3.org/Graphics/SVG/1.1/DTD/svg11.dtd"><svg t="1554361859583" class="icon" style="" viewBox="0 0 1024 1024" version="1.1" xmlns="http://www.w3.org/2000/svg" p-id="17194" xmlns:xlink="http://www.w3.org/1999/xlink" width="200" height="200"><defs><style type="text/css"></style></defs><path d="M884.52 552.18V372.39c0-136.56-111.73-248.3-248.3-248.3H379.81c-136.54 0-248.26 111.72-248.26 248.26v192a242.9 242.9 0 0 0-22.79 102.88v200.82a29.68 29.68 0 0 0 29.59 29.59h149a30.91 30.91 0 0 0 1.94-10.79v-65.11h452v65.36a30.47 30.47 0 0 0 1.87 10.54h140.63a29.68 29.68 0 0 0 29.59-29.59V667.22a243 243 0 0 0-28.86-115.04z" fill="#DBCCAC" p-id="17195"></path><path d="M415.79 277.78H310.7a30.75 30.75 0 0 0-30.65 30.66v105.09a30.74 30.74 0 0 0 30.65 30.65h11.83A225 225 0 0 1 354 442h73.15a30.75 30.75 0 0 0 19.32-28.46v-105.1a30.75 30.75 0 0 0-30.68-30.66zM700.07 277.78H593.39a30 30 0 0 0-29.86 29.86v106.68a29.93 29.93 0 0 0 18.7 27.68h85.92a224.52 224.52 0 0 1 31.41 2.19h0.51a30 30 0 0 0 29.86-29.86V307.64a30 30 0 0 0-29.86-29.86z" fill="#AC8B73" p-id="17196"></path><path d="M564.96 497.15m-16.43 0a16.43 16.43 0 1 0 32.86 0 16.43 16.43 0 1 0-32.86 0Z" fill="#FFFFFF" p-id="17197"></path><path d="M794.43 560.45c-1.2-2-30-49.58-82.95-65.42-23.3-7-92.31-9.72-100.11-10a12.14 12.14 0 0 0-0.9 24.26c20.32 0.76 76.82 3.85 94 9 43.67 13.07 68.82 54.19 69.05 54.58a12.14 12.14 0 1 0 20.86-12.42z" fill="#FFFFFF" p-id="17198"></path><path d="M904.52 547.05V372.39c0-71.39-28-138.69-78.8-189.5s-118.11-78.8-189.5-78.8H379.81c-71.38 0-138.67 28-189.47 78.79S111.55 301 111.55 372.35v187.36a263 263 0 0 0-22.78 107.47v200.87a49.59 49.59 0 0 0 49.59 49.59h120.45a30.45 30.45 0 0 0 30.45-30.46v-65.44h452v65.36a30.49 30.49 0 0 0 29 30.48h113.5a49.64 49.64 0 0 0 49.59-49.59V667.22a262.75 262.75 0 0 0-28.83-120.17zM431.44 402H354a265.45 265.45 0 0 0-58.92 6.59V308.44a15.68 15.68 0 0 1 15.65-15.66h105.06a15.68 15.68 0 0 1 15.65 15.66zM286.6 452.28q2.1-0.66 4.22-1.28l1.14-0.32 3.12-0.88 1.38-0.36 2.93-0.76 1.48-0.36 2.86-0.68 1.53-0.34 2.85-0.61 1.56-0.32 2.85-0.55 1.57-0.29 2.87-0.5 1.57-0.26 2.92-0.44 1.63-0.24 1.79-0.24 2.47-0.31 1.46-0.17 2.77-0.29 1.32-0.13 2.9-0.25 1.28-0.1 2.93-0.2 1.29-0.08 2.94-0.14 1.3-0.06 3.06-0.09h325.07l2.28 0.06 1.89 0.08 2 0.09 1.93 0.11 1.94 0.12 1.81 0.14 2.08 0.16 1.56 0.14 2.38 0.23 1.15 0.13 2.86 0.33 0.58 0.07q1.74 0.22 3.47 0.46 3.46 0.48 6.88 1.07l0.55 0.1q3.18 0.55 6.33 1.19l1 0.2q3 0.63 6 1.34l0.86 0.21c2.09 0.51 4.17 1 6.23 1.6A226.2 226.2 0 0 1 864.52 557a223.67 223.67 0 0 1 26.84 80.11H130.77a223.54 223.54 0 0 1 20.78-68.6A226.38 226.38 0 0 1 286.6 452.28z m428.33-46.16a265.25 265.25 0 0 0-46.78-4.12h-89.62v-94.36a14.88 14.88 0 0 1 14.86-14.86h106.68a14.88 14.88 0 0 1 14.86 14.86z m-563.38-33.77c0-125.86 102.4-228.26 228.26-228.26h256.41c125.88 0 228.3 102.42 228.3 228.3v117q-4.38-4.83-9-9.48a264.79 264.79 0 0 0-110.56-66.58V307.64a44.91 44.91 0 0 0-44.86-44.86H593.39a44.92 44.92 0 0 0-44.86 44.86V402h-87.09v-93.56a45.71 45.71 0 0 0-45.65-45.66H310.7a45.71 45.71 0 0 0-45.65 45.66v105.09c0 1.26 0 2.5 0.15 3.74a265.23 265.23 0 0 0-98.54 62.6q-7.93 7.93-15.11 16.4z m732.24 505.29H781.23V798A16.26 16.26 0 0 0 765 781.74h-1.16a20.11 20.11 0 0 0-2.81-0.17 17.87 17.87 0 0 0-2.33 0.17H271.83a18.88 18.88 0 0 0-2.83-0.17 19.62 19.62 0 0 0-2.31 0.17h-1.17A16.26 16.26 0 0 0 249.26 798v79.64h-110.9a9.62 9.62 0 0 1-9.59-9.59V677.12h764.61v190.93a9.62 9.62 0 0 1-9.59 9.59z" fill="#887262" p-id="17199"></path></svg>