<?xml version="1.0" standalone="no"?><!DOCTYPE svg PUBLIC "-//W3C//DTD SVG 1.1//EN" "http://www.w3.org/Graphics/SVG/1.1/DTD/svg11.dtd"><svg t="1554361835704" class="icon" style="" viewBox="0 0 1024 1024" version="1.1" xmlns="http://www.w3.org/2000/svg" p-id="15717" xmlns:xlink="http://www.w3.org/1999/xlink" width="200" height="200"><defs><style type="text/css"></style></defs><path d="M656.238806 269.617672h-61.378866l39.913075-41.953433 21.465791 41.953433z m-82.959284-11.508538l-46.278686-53.477253h97.119522l-50.840836 53.477253z m-165.452418-53.477253h87.429732l-49.83212 53.217432-37.597612-53.217432z m103.232956 17.599044l41.036418 47.394388H466.676537l44.383523-47.394388z m43.902089 70.95403l-46.523224 135.794627-50.206567-135.794627h96.729791z m24.835821 0h88.675343L529.239881 441.389851l50.558089-148.204896z" fill="#F5B3B4" fill-opacity=".6" p-id="15718"></path><path d="M509.348299 473.240836c-130.888597 0-237.010149 106.11391-237.01015 237.010149 0 130.903881 106.121552 237.033075 237.01015 237.033075 130.911522 0 237.033075-106.129194 237.033074-237.033075-0.007642-130.903881-106.121552-237.010149-237.033074-237.010149z m-0.007642 450.025074c-117.637731 0-212.999642-95.369552-212.999642-213.014925 0-117.637731 95.36191-213.007284 212.999642-213.007284 117.660657 0 213.014925 95.369552 213.014925 213.007284 0 117.645373-95.354269 213.014925-213.014925 213.014925z" fill="#EA5C5B" p-id="15719"></path><path d="M509.340657 529.148179c-99.847642 0-181.095164 81.239881-181.095164 181.102806 0 99.878209 81.247522 181.141015 181.095164 181.141015 99.862925 0 181.11809-81.262806 181.118089-181.141015 0-99.862925-81.255164-181.102806-181.118089-181.102806z m0 326.976955c-80.422209 0-145.851224-65.436657-145.851224-145.874149 0-80.422209 65.429015-145.851224 145.851224-145.851224 80.429851 0 145.858866 65.429015 145.858865 145.851224 0 80.437493-65.429015 145.874149-145.858865 145.874149z" fill="#F5B3B4" fill-opacity=".6" p-id="15720"></path><path d="M800.500537 855.376239l26.096717 14.267224 14.259582 26.089074 14.274865-26.089074 26.089075-14.267224-26.089075-14.274866-14.274865-26.096716-14.259582 26.096716-26.096717 14.274866z" fill="#F5B3B4" p-id="15721"></path><path d="M94.368478 448.221612l40.035343 21.901373 21.901373 40.050627 21.901373-40.050627 40.050627-21.901373-40.050627-21.893731-21.901373-40.042985-21.901373 40.042985-40.035343 21.893731z" fill="#EF8B89" p-id="15722"></path><path d="M887.242507 359.882507l-35.893492-65.642985-65.642985-35.893492 65.642985-35.901134 35.893492-65.635344 35.901135 65.635344 65.635343 35.901134-65.635343 35.893492-35.901135 65.642985z m-40.36394-101.544119l26.104358 14.274866 14.259582 26.089074 14.267224-26.089074 26.089075-14.274866-26.089075-14.274866-14.267224-26.089074-14.259582 26.089074-26.104358 14.274866z" fill="#F5B3B4" p-id="15723"></path><path d="M656.238806 269.617672h-61.378866l39.913075-41.961075 21.465791 41.961075z m-82.959284-11.523821l-46.286328-53.477254h97.127164l-50.840836 53.477254z m6.510806 35.083462h88.675344L529.224597 441.397493l50.565731-148.22018z" fill="#EF8B89" p-id="15724"></path><path d="M329.177791 299.474149c0.924657 0.932299 1.971582 1.711761 3.072 2.414806l-6.22806-6.854686c0.840597 1.604776 1.849313 3.133134 3.15606 4.43988zM327.190925 276.296597l-0.657194 1.039284c-0.420299 0.703045-0.649552 1.490149-0.970507 2.231403l3.408239-5.471523c-0.649552 0.687761-1.23797 1.429015-1.780538 2.200836zM694.203224 275.066269l4.164776 7.527164a17.301015 17.301015 0 0 0-4.164776-7.527164zM694.898627 299.451224l-1.436657 1.536c0.198687-0.183403 0.435582-0.320955 0.611343-0.504358 0.313313-0.313313 0.542567-0.695403 0.825314-1.031642zM645.463881 186.994627l3.729194 6.755343a17.79009 17.79009 0 0 0-3.729194-6.755343zM631.953194 181.064597h0.091702-0.091702z" fill="#EA5C5B" p-id="15725"></path><path d="M698.368 282.593433l-4.164776-7.527164-45.010149-81.323941-3.729194-6.755343c-0.244537-0.282746-0.450866-0.603701-0.725971-0.878806-3.347104-3.347104-8.016239-5.03594-12.700656-5.051224H397.212657c-4.684418 0-9.384119 1.66591-12.777075 5.051224-0.741254 0.733612-1.375522 1.566567-1.971582 2.414806l-0.649552 1.046925-52.842985 84.525851-3.408239 5.471523a17.522627 17.522627 0 0 0-1.696478 7.106865c0 2.919164 0.794746 5.769552 2.147344 8.352478l6.228059 6.854686L509.386507 496.945672l0.641911-0.687762 0.259821 0.687762 0.504358-1.505433 182.65409-194.460657 1.436656-1.536c2.751045-3.247761 4.210627-7.435463 4.233553-11.669015v-0.091701a18.989851 18.989851 0 0 0-0.748896-5.089433z m-63.602627-54.929194l21.473433 41.953433h-61.378866l39.905433-41.953433z m-19.861015-23.032358h9.216l-5.76191 6.052298-45.078926 47.424955-46.278686-53.477253h87.903522z m-62.800239 64.985791H466.676537l44.391164-47.394388 41.036418 47.394388z m-137.819701-64.985791h80.972418l-49.83212 53.217432-33.914268-47.998089-3.683344-5.226985h6.457314z m-15.879642 27.518089l26.478806 37.467702h-54.18794l27.709134-37.467702z m-42.243821 61.034985h76.242149l55.410627 144.949493-131.652776-144.949493z m152.27797 135.794627l-50.206567-135.794627h96.729791l-46.523224 135.794627z m20.800956 12.410269l50.550447-148.204896h88.675344l-2.972657 3.15606-136.253134 145.048836z" fill="#EA5C5B" p-id="15726"></path></svg>