<?xml version="1.0" standalone="no"?><!DOCTYPE svg PUBLIC "-//W3C//DTD SVG 1.1//EN" "http://www.w3.org/Graphics/SVG/1.1/DTD/svg11.dtd"><svg t="1554361790748" class="icon" style="" viewBox="0 0 1024 1024" version="1.1" xmlns="http://www.w3.org/2000/svg" p-id="14024" xmlns:xlink="http://www.w3.org/1999/xlink" width="200" height="200"><defs><style type="text/css"></style></defs><path d="M268.79 626.35m-179.98 0a179.98 179.98 0 1 0 359.96 0 179.98 179.98 0 1 0-359.96 0Z" fill="#FFE9D1" p-id="14025"></path><path d="M312.11 454.55a18.42 18.42 0 0 1-3.7-0.38 175.6 175.6 0 0 0-56.17-2.17 18.37 18.37 0 1 1-4.49-36.47 211.62 211.62 0 0 1 68 2.68 18.37 18.37 0 0 1-3.66 36.37zM273.57 832.9c-115.51 0-209.49-94-209.49-209.49a207.41 207.41 0 0 1 21.82-93.18 18.37 18.37 0 0 1 32.9 16.36 171 171 0 0 0-18 76.81c0 95.25 77.49 172.74 172.74 172.74a171.13 171.13 0 0 0 105-35.53 18.37 18.37 0 0 1 22.35 29.17 207.57 207.57 0 0 1-127.32 43.12z" fill="#C49F86" p-id="14026"></path><path d="M273.57 760.58a137.63 137.63 0 0 1-129.05-90.66 18.37 18.37 0 1 1 34.56-12.49 100.78 100.78 0 0 0 94.5 66.41 18.37 18.37 0 1 1 0 36.74z" fill="#C49F86" p-id="14027"></path><path d="M734 278.14a116 116 0 0 1 161.6 150.28" fill="#FFD192" p-id="14028"></path><path d="M806.83 363.94c-16.39-49.14-64.78-83.4-120-80.55a123.88 123.88 0 0 0-12.48 1.28c-9.78-58.16-62.8-101-124.31-97.84A120.35 120.35 0 0 0 452 246.17l53 109.34 229 41.24 72.86-32.81" fill="#B6DFE1" p-id="14029"></path><path d="M894.5 498.82a120.35 120.35 0 0 0-39.94-107.45c-46.21-40.72-114.38-40.1-158.2-0.62a123.88 123.88 0 0 0-9-8.76c-41.49-36.56-100.7-39.8-144.08-11.49l34.3 68 73.16 48.84L670 570l67.57-4.58z" fill="#B6DFE1" p-id="14030"></path><path d="M648.52 575.69a86 86 0 0 0 10.05-22.62c13.13-46.56-14.74-95.16-62.24-108.55a91.14 91.14 0 0 0-25.8-3.44c0.18-38.62-25.81-74.38-65.49-85.57a92.36 92.36 0 0 0-9.12-2.08c7-43.41-20.2-86.35-64.39-98.81a89.72 89.72 0 0 0-83.45 18.46l-42.13 225.41A306.18 306.18 0 0 0 497.8 840.83 306.18 306.18 0 0 0 857.25 731l100-141.93a120.35 120.35 0 0 0-82.5-79.59c-59.28-16.72-120.47 13.34-142.89 67.89a123.88 123.88 0 0 0-11.88-4c-53.23-15-108 7.69-134.86 52" fill="#FFD192" p-id="14031"></path><path d="M895.56 446.8a18.38 18.38 0 0 1-16.65-26.12 97.65 97.65 0 0 0-136-126.49A18.37 18.37 0 0 1 725 262.1a133.5 133.5 0 0 1 80-16.14c73.64 8.1 127 74.61 118.86 148.25a134.15 134.15 0 0 1-11.69 42 18.37 18.37 0 0 1-16.61 10.59z" fill="#C49F86" p-id="14032"></path><path d="M806.83 382.31a18.38 18.38 0 0 1-17.43-12.56c-14.14-42.41-55.95-70.38-101.63-68a105.81 105.81 0 0 0-10.62 1.09 18.36 18.36 0 0 1-20.92-15.11C647.87 238 602.62 202.52 551 205.17c-34.8 1.8-65.89 20.58-83.15 50.24a18.37 18.37 0 0 1-31.76-18.48c23.52-40.43 65.77-66 113-68.46 64.38-3.33 121.53 37.23 139.46 96.45 61.09-2 116.64 36 135.71 93.2a18.39 18.39 0 0 1-17.43 24.19z" fill="#C49F86" p-id="14033"></path><path d="M894.52 517.19a18.39 18.39 0 0 1-18.21-21c4.92-34-7.76-68-33.91-91-38.79-34.18-96.3-34.51-133.75-0.75a18.37 18.37 0 0 1-25.78-1.16 106.08 106.08 0 0 0-7.65-7.46c-34.33-30.25-84.45-34.32-121.89-9.89a18.37 18.37 0 0 1-20.08-30.77c50.48-32.94 117.62-28.18 164.24 11.34 50.86-35.24 120.83-31.5 169.2 11.13 35.49 31.27 52.68 77.58 46 123.87a18.38 18.38 0 0 1-18.17 15.69z" fill="#C49F86" p-id="14034"></path><path d="M607 879.37a324.74 324.74 0 0 1-319.11-384.25L330 269.71a18.37 18.37 0 0 1 6-10.47 107.81 107.81 0 0 1 100.51-22.3c47.17 13.3 78.81 55.72 78.89 102.56 38.17 12.91 65.83 45.79 72.14 84.39a110.42 110.42 0 0 1 13.78 3c54.7 15.42 87.84 70 76.72 123.9a139.72 139.72 0 0 1 44.29 4.21c30.6-53.78 95.3-80.68 157.36-63.18 45.53 12.84 81.06 47.15 95 91.78a18.37 18.37 0 0 1-2.51 16.07l-100 141.93A324.37 324.37 0 0 1 607 879.37zM364.89 283.14L324 501.87a287.81 287.81 0 0 0 518.22 218.6l94.46-134.12a101.91 101.91 0 0 0-67-59.14C820 513.17 768 537.76 748.81 584.4a18.37 18.37 0 0 1-23.74 10.1 106 106 0 0 0-10.12-3.42 103.14 103.14 0 0 0-56.6 0.14 18.44 18.44 0 0 1-8.27 2.77 98.79 98.79 0 0 0-49.29 40.92 18.37 18.37 0 1 1-31.42-19.05 135.49 135.49 0 0 1 67-55.91 68.12 68.12 0 0 0 4.57-11.86c10.36-36.73-11.87-75.26-49.55-85.88a73.12 73.12 0 0 0-20.61-2.75A18.37 18.37 0 0 1 552.16 441c0.14-31.23-21.28-59.12-52.1-67.81a74.15 74.15 0 0 0-7.3-1.66 18.37 18.37 0 0 1-15-21c5.6-34.77-16.43-68.39-51.24-78.21a71.31 71.31 0 0 0-61.63 10.82z" fill="#C49F86" p-id="14035"></path><path d="M53.86 438a78.6 78.6 0 0 0 123.86 80.23l-48.88-91.43a78.72 78.72 0 0 0-74.22 10" fill="#B6DFE1" p-id="14036"></path><path d="M182.7 512.07a78.6 78.6 0 0 0 13.17-147l-1.38-0.11a78.6 78.6 0 0 0-11.12 147.16" fill="#B6DFE1" p-id="14037"></path><path d="M130.5 552.27a96.89 96.89 0 0 1-94.55-118.38 18.31 18.31 0 0 1 3-6.6 18.32 18.32 0 0 1 4.84-5.29 96.57 96.57 0 0 1 91.58-12.34A18.37 18.37 0 1 1 122.31 444a59.9 59.9 0 0 0-51.59 4.23 60.23 60.23 0 0 0 96 55.3 18.37 18.37 0 1 1 22.08 29.37 96.9 96.9 0 0 1-58.3 19.37z" fill="#C49F86" p-id="14038"></path><path d="M183.36 530.5a20.62 20.62 0 0 1-11.2-3.38 97 97 0 0 1 17.32-179.83 22.54 22.54 0 0 1 14.23 1.17A97 97 0 0 1 191.3 528.7a18.43 18.43 0 0 1-7.94 1.8z m10.2-145.83a60.23 60.23 0 0 0-8.87 107.41 60.23 60.23 0 0 0 8.87-107.41z" fill="#C49F86" p-id="14039"></path><path d="M468.83 752.06a18.28 18.28 0 0 1-10.48-3.29c-32.71-22.75-56.94-55.63-72-97.7-11.7-32.65-17.89-70.88-18.4-113.63-0.86-71.75 14.44-131.32 15.09-133.82a18.37 18.37 0 0 1 35.56 9.25C418 415.1 362.08 637 479.34 718.6a18.37 18.37 0 0 1-10.51 33.46z" fill="#FFAA99" p-id="14040"></path></svg>